<svg width="1388" height="520" viewBox="0 0 1388 520" fill="none" xmlns="http://www.w3.org/2000/svg">
<rect width="1388" height="520" fill="black"/>
<path d="M60 260C60 149.543 149.543 60 260 60V60C370.457 60 460 149.543 460 260V260C460 370.457 370.457 460 260 460V460C149.543 460 60 370.457 60 260V260Z" fill="url(#paint0_linear)"/>
<path d="M60 260C60 149.543 149.543 60 260 60V60C370.457 60 460 149.543 460 260V260C460 370.457 370.457 460 260 460V460C149.543 460 60 370.457 60 260V260Z" fill="white" fill-opacity="0.48"/>
<path fill-rule="evenodd" clip-rule="evenodd" d="M260 480C138.497 480 40 381.503 40 260C40 138.497 138.497 40 260 40C381.503 40 480 138.497 480 260C480 381.503 381.503 480 260 480ZM260 60C149.543 60 60 149.543 60 260C60 370.457 149.543 460 260 460C370.457 460 460 370.457 460 260C460 149.543 370.457 60 260 60Z" fill="white"/>
<path d="M236.192 202.936C227.489 187.862 232.654 168.586 247.728 159.883L369.188 89.7585C384.262 81.0554 403.537 86.2202 412.24 101.294L482.365 222.754C491.068 237.828 485.904 257.104 470.829 265.807L349.37 335.931C334.295 344.635 315.02 339.47 306.317 324.396L236.192 202.936Z" fill="url(#paint1_linear)"/>
<path d="M236.192 202.936C227.489 187.862 232.654 168.586 247.728 159.883L309.413 124.269L411.055 300.318L349.37 335.931C334.295 344.635 315.02 339.47 306.317 324.396L271.255 263.666L236.192 202.936Z" fill="url(#paint2_linear)"/>
<path d="M306.194 217.155C303.506 218.707 300.689 219.656 297.742 220.003C294.847 220.363 291.988 220.178 289.163 219.449C286.352 218.668 283.757 217.391 281.379 215.618C279 213.845 277.035 211.614 275.483 208.926C273.931 206.238 272.982 203.421 272.636 200.475C272.289 197.528 272.49 194.659 273.238 191.867C274 189.023 275.261 186.438 277.02 184.111C278.794 181.732 281.024 179.767 283.712 178.215C286.4 176.664 289.217 175.714 292.164 175.368C295.091 174.989 297.961 175.19 300.772 175.97C303.596 176.7 306.181 177.96 308.527 179.753C310.906 181.526 312.871 183.757 314.423 186.444C315.975 189.132 316.924 191.949 317.27 194.896C317.65 197.824 317.458 200.709 316.696 203.553C315.948 206.345 314.678 208.914 312.886 211.26C311.112 213.638 308.882 215.603 306.194 217.155ZM304.235 213.763C306.464 212.476 308.309 210.864 309.77 208.929C311.212 206.96 312.244 204.812 312.868 202.486C313.491 200.159 313.654 197.792 313.357 195.385C313.093 192.959 312.317 190.632 311.031 188.403C309.744 186.174 308.116 184.339 306.147 182.897C304.211 181.436 302.08 180.394 299.753 179.771C297.427 179.147 295.06 178.984 292.653 179.281C290.227 179.545 287.9 180.321 285.671 181.608C283.442 182.895 281.606 184.522 280.165 186.491C278.704 188.427 277.662 190.558 277.038 192.885C276.415 195.212 276.235 197.588 276.5 200.014C276.797 202.421 277.589 204.739 278.876 206.968C280.162 209.197 281.774 211.041 283.71 212.502C285.679 213.944 287.826 214.977 290.153 215.6C292.479 216.223 294.856 216.403 297.282 216.139C299.689 215.842 302.006 215.05 304.235 213.763ZM302.873 211.403C300.972 212.5 298.987 213.188 296.918 213.464C294.862 213.689 292.836 213.548 290.839 213.041C288.855 212.482 287.029 211.591 285.362 210.368C283.709 209.094 282.333 207.506 281.236 205.605C280.138 203.704 279.46 201.735 279.202 199.699C278.958 197.611 279.1 195.585 279.626 193.62C280.166 191.604 281.057 189.778 282.299 188.144C283.554 186.457 285.132 185.065 287.033 183.968C288.934 182.87 290.929 182.199 293.017 181.955C295.086 181.679 297.112 181.82 299.096 182.379C301.093 182.886 302.919 183.777 304.572 185.052C306.24 186.274 307.622 187.836 308.72 189.737C309.817 191.638 310.488 193.633 310.732 195.721C310.99 197.757 310.849 199.783 310.309 201.8C309.782 203.764 308.891 205.59 307.636 207.276C306.362 208.93 304.774 210.305 302.873 211.403ZM300.914 208.01C302.848 206.894 304.32 205.432 305.331 203.625C306.374 201.799 306.901 199.834 306.91 197.731C306.953 195.608 306.425 193.597 305.327 191.696C304.211 189.762 302.732 188.299 300.892 187.307C299.066 186.264 297.102 185.737 294.998 185.728C292.928 185.7 290.926 186.244 288.992 187.36C287.091 188.458 285.619 189.92 284.575 191.746C283.532 193.572 283.005 195.537 282.996 197.64C282.967 199.71 283.512 201.713 284.628 203.646C285.726 205.548 287.188 207.02 289.014 208.063C290.84 209.107 292.804 209.633 294.908 209.643C297.011 209.652 299.013 209.108 300.914 208.01Z" fill="#00FFB7"/>
<path d="M435.728 244.26C433.04 245.812 430.223 246.761 427.276 247.107C424.381 247.467 421.521 247.283 418.697 246.554C415.886 245.773 413.291 244.496 410.913 242.722C408.534 240.949 406.569 238.719 405.017 236.031C403.465 233.343 402.516 230.526 402.17 227.579C401.823 224.632 402.024 221.763 402.772 218.971C403.534 216.128 404.795 213.542 406.554 211.215C408.328 208.837 410.558 206.872 413.246 205.32C415.934 203.768 418.751 202.819 421.697 202.472C424.625 202.093 427.494 202.294 430.305 203.075C433.13 203.804 435.715 205.065 438.061 206.857C440.44 208.63 442.405 210.861 443.957 213.549C445.509 216.237 446.458 219.054 446.804 222C447.183 224.928 446.992 227.814 446.23 230.657C445.482 233.449 444.212 236.018 442.42 238.364C440.646 240.743 438.416 242.708 435.728 244.26ZM433.769 240.867C435.998 239.58 437.843 237.969 439.304 236.033C440.746 234.064 441.778 231.917 442.402 229.59C443.025 227.263 443.188 224.897 442.891 222.49C442.627 220.064 441.851 217.736 440.564 215.507C439.277 213.279 437.65 211.443 435.681 210.001C433.745 208.541 431.614 207.498 429.287 206.875C426.96 206.252 424.594 206.088 422.187 206.386C419.761 206.65 417.433 207.425 415.205 208.712C412.976 209.999 411.14 211.627 409.698 213.596C408.238 215.532 407.196 217.663 406.572 219.99C405.949 222.316 405.769 224.692 406.033 227.118C406.331 229.525 407.123 231.843 408.409 234.072C409.696 236.301 411.308 238.146 413.244 239.607C415.212 241.048 417.36 242.081 419.687 242.705C422.013 243.328 424.389 243.507 426.815 243.243C429.222 242.946 431.54 242.154 433.769 240.867ZM432.407 238.507C430.506 239.605 428.52 240.292 426.451 240.569C424.396 240.794 422.37 240.653 420.372 240.145C418.389 239.586 416.563 238.695 414.896 237.473C413.243 236.198 411.867 234.611 410.769 232.71C409.672 230.808 408.994 228.84 408.736 226.803C408.492 224.715 408.633 222.689 409.16 220.724C409.7 218.708 410.591 216.883 411.832 215.248C413.088 213.562 414.666 212.17 416.567 211.072C418.468 209.975 420.463 209.304 422.551 209.06C424.62 208.783 426.646 208.924 428.63 209.483C430.627 209.991 432.453 210.882 434.106 212.156C435.773 213.379 437.156 214.94 438.254 216.842C439.351 218.743 440.022 220.737 440.266 222.825C440.524 224.862 440.383 226.888 439.842 228.904C439.316 230.869 438.425 232.694 437.17 234.381C435.895 236.034 434.308 237.41 432.407 238.507ZM430.448 235.115C432.382 233.998 433.854 232.536 434.865 230.729C435.908 228.903 436.435 226.938 436.444 224.835C436.486 222.713 435.959 220.701 434.861 218.8C433.744 216.866 432.266 215.404 430.426 214.412C428.6 213.368 426.635 212.842 424.532 212.832C422.462 212.804 420.46 213.348 418.526 214.465C416.625 215.562 415.152 217.024 414.109 218.85C413.065 220.677 412.539 222.641 412.53 224.744C412.501 226.815 413.045 228.817 414.162 230.751C415.259 232.652 416.721 234.124 418.547 235.168C420.374 236.211 422.338 236.738 424.442 236.747C426.545 236.756 428.547 236.212 430.448 235.115Z" fill="#00FFB7"/>
<path d="M145.883 194.885C154.586 179.811 173.862 174.646 188.936 183.349L310.395 253.474C325.47 262.177 330.634 281.453 321.931 296.527L251.807 417.987C243.103 433.061 223.828 438.226 208.754 429.522L87.2943 359.398C72.2201 350.695 67.0552 331.419 75.7583 316.345L145.883 194.885Z" fill="#202020"/>
<path d="M145.883 194.885C154.586 179.811 173.862 174.646 188.936 183.349L310.395 253.474C325.47 262.177 330.634 281.453 321.931 296.527L251.807 417.987C243.103 433.061 223.828 438.226 208.754 429.522L87.2943 359.398C72.2201 350.695 67.0552 331.419 75.7583 316.345L145.883 194.885Z" fill="url(#paint3_linear)"/>
<path d="M146.368 194.074C155.071 178.999 174.347 173.835 189.421 182.538L251.106 218.152L149.464 394.2L87.7793 358.586C72.705 349.883 67.5402 330.607 76.2433 315.533L111.306 254.803L146.368 194.074Z" fill="url(#paint4_linear)"/>
<path d="M184.596 331.288C181.146 329.297 178.283 326.774 176.007 323.721C173.749 320.735 172.118 317.438 171.116 313.83C170.18 310.205 169.935 306.501 170.379 302.719C170.824 298.937 172.042 295.321 174.034 291.872C176.026 288.422 178.548 285.559 181.601 283.283C184.654 281.007 187.972 279.389 191.555 278.429C195.205 277.451 198.888 277.193 202.603 277.655C206.385 278.1 210.001 279.318 213.451 281.31C216.9 283.302 219.763 285.824 222.039 288.877C224.34 291.888 225.958 295.206 226.894 298.831C227.896 302.439 228.154 306.121 227.667 309.879C227.222 313.661 226.004 317.277 224.012 320.727C222.021 324.176 219.498 327.039 216.445 329.315C213.435 331.616 210.104 333.255 206.455 334.233C202.871 335.193 199.201 335.429 195.443 334.943C191.661 334.498 188.045 333.28 184.596 331.288ZM187.109 326.934C189.97 328.586 192.945 329.602 196.035 329.984C199.148 330.323 202.198 330.092 205.184 329.292C208.17 328.492 210.906 327.155 213.39 325.28C215.917 323.429 218.007 321.073 219.658 318.213C221.31 315.352 222.305 312.365 222.644 309.251C223.026 306.162 222.816 303.124 222.016 300.138C221.216 297.152 219.879 294.417 218.004 291.932C216.153 289.405 213.797 287.316 210.937 285.664C208.076 284.012 205.089 283.017 201.975 282.678C198.886 282.296 195.848 282.506 192.862 283.306C189.876 284.106 187.12 285.431 184.593 287.282C182.108 289.157 180.04 291.525 178.388 294.385C176.736 297.246 175.72 300.221 175.339 303.31C174.999 306.424 175.23 309.474 176.03 312.46C176.83 315.446 178.155 318.203 180.006 320.729C181.881 323.214 184.249 325.282 187.109 326.934ZM188.858 323.905C186.418 322.496 184.38 320.731 182.745 318.609C181.176 316.469 180.032 314.126 179.315 311.58C178.663 309.016 178.482 306.415 178.771 303.778C179.126 301.122 180.008 298.574 181.417 296.134C182.826 293.694 184.579 291.677 186.677 290.084C188.841 288.473 191.184 287.329 193.706 286.654C196.294 285.96 198.895 285.779 201.508 286.11C204.188 286.423 206.748 287.284 209.188 288.693C211.628 290.102 213.654 291.888 215.265 294.053C216.9 296.175 218.044 298.518 218.695 301.081C219.413 303.627 219.594 306.228 219.239 308.884C218.95 311.521 218.101 314.06 216.692 316.5C215.284 318.94 213.497 320.966 211.333 322.577C209.235 324.171 206.892 325.314 204.304 326.007C201.782 326.683 199.182 326.864 196.502 326.551C193.846 326.196 191.298 325.314 188.858 323.905ZM191.372 319.551C193.854 320.984 196.424 321.682 199.081 321.646C201.781 321.634 204.302 320.958 206.646 319.619C209.032 318.304 210.929 316.426 212.338 313.986C213.771 311.504 214.448 308.923 214.37 306.241C214.358 303.541 213.682 301.02 212.343 298.676C211.046 296.357 209.156 294.48 206.674 293.047C204.234 291.638 201.664 290.94 198.965 290.952C196.265 290.964 193.744 291.64 191.4 292.979C189.081 294.276 187.204 296.166 185.771 298.648C184.363 301.088 183.664 303.658 183.676 306.357C183.688 309.057 184.364 311.578 185.703 313.922C187.042 316.266 188.932 318.142 191.372 319.551Z" fill="#00FFB7"/>
<path d="M590.453 207.677H631.331C637.073 207.677 641.728 212.371 641.728 218.161C641.728 223.951 637.073 228.645 631.331 228.645H582.025C581.256 228.645 580.511 228.922 579.926 229.427L565.039 242.27C562.76 244.236 564.139 248 567.138 248H628.862C628.887 248 628.908 247.979 628.908 247.954C628.908 247.927 628.931 247.905 628.958 247.907C629.734 247.969 630.52 248 631.312 248C647.685 248 660.958 234.641 660.958 218.161C660.958 202.512 648.989 189.677 633.762 188.423C633.736 188.421 633.716 188.399 633.716 188.373C633.716 188.345 633.693 188.323 633.666 188.323H589.627C583.885 188.323 579.23 183.629 579.23 177.839C579.23 172.049 583.885 167.355 589.627 167.355H638.865C639.676 167.355 640.457 167.047 641.053 166.493L654.877 153.65C657.039 151.641 655.63 148 652.689 148H590.453C590.45 148 590.448 148.002 590.448 148.005C590.448 148.008 590.445 148.011 590.442 148.011C590.178 148.004 589.913 148 589.646 148C573.273 148 560 161.359 560 177.839C560 194.318 573.273 207.677 589.646 207.677C589.913 207.677 590.178 207.674 590.442 207.667C590.445 207.667 590.448 207.669 590.448 207.672C590.448 207.675 590.45 207.677 590.453 207.677Z" fill="white"/>
<path d="M828.544 148C826.757 148 825.308 149.458 825.308 151.256V244.744C825.308 246.542 826.757 248 828.544 248H903.397C904.291 248 905.145 247.628 905.757 246.971L915.126 236.915C917.064 234.836 915.599 231.433 912.766 231.433H847.41C845.623 231.433 844.174 229.975 844.174 228.177V151.256C844.174 149.458 842.725 148 840.938 148H828.544Z" fill="white"/>
<path fill-rule="evenodd" clip-rule="evenodd" d="M708.654 148C708.649 148 708.646 148.004 708.646 148.009C708.646 148.014 708.642 148.017 708.637 148.018C699.07 148.432 691.387 156.138 690.974 165.733C690.974 165.738 690.97 165.742 690.965 165.742C690.962 165.742 690.96 165.743 690.959 165.745C690.957 165.746 690.956 165.749 690.956 165.751V228.637C690.956 228.641 690.96 228.645 690.965 228.645C690.97 228.645 690.973 228.649 690.973 228.654C690.962 228.918 690.956 229.184 690.956 229.452C690.956 239.423 698.801 247.556 708.637 247.982C708.642 247.983 708.646 247.986 708.646 247.991L708.646 247.995L708.649 247.998C708.65 247.999 708.652 248 708.654 248H776.575C776.58 248 776.584 247.996 776.584 247.991L776.585 247.986L776.588 247.983L776.592 247.982C786.429 247.556 794.273 239.423 794.273 229.452C794.273 229.184 794.267 228.918 794.256 228.654C794.256 228.649 794.26 228.645 794.264 228.645C794.269 228.645 794.273 228.641 794.273 228.637V165.751C794.273 165.746 794.269 165.742 794.264 165.742C794.259 165.742 794.255 165.738 794.255 165.733C793.842 156.138 786.159 148.432 776.592 148.018C776.587 148.017 776.584 148.014 776.584 148.009C776.584 148.004 776.58 148 776.575 148H708.654ZM721.315 165.742L721.311 165.744L721.309 165.747C721.309 165.75 721.307 165.753 721.304 165.753C715.325 166.014 710.523 170.861 710.265 176.897C710.265 176.9 710.262 176.902 710.259 176.902C710.256 176.902 710.254 176.905 710.254 176.908V216.465C710.254 216.468 710.256 216.47 710.259 216.47C710.262 216.47 710.264 216.473 710.264 216.476C710.257 216.642 710.254 216.81 710.254 216.978C710.254 223.25 715.156 228.366 721.304 228.634C721.307 228.634 721.309 228.637 721.309 228.64L721.31 228.643L721.312 228.644L721.315 228.645H763.914L763.917 228.645L763.919 228.642L763.92 228.64C763.92 228.637 763.922 228.634 763.925 228.634C770.073 228.366 774.976 223.25 774.976 216.978C774.976 216.81 774.972 216.642 774.965 216.476L774.965 216.474L774.966 216.473L774.97 216.47C774.973 216.47 774.976 216.468 774.976 216.465V176.908C774.976 176.905 774.973 176.902 774.97 176.902C774.967 176.902 774.965 176.9 774.965 176.897C774.706 170.861 769.905 166.014 763.925 165.753C763.922 165.753 763.92 165.75 763.92 165.747L763.919 165.745L763.917 165.743L763.914 165.742H721.315Z" fill="white"/>
<path fill-rule="evenodd" clip-rule="evenodd" d="M1023.97 244.744C1023.97 246.542 1025.41 248 1027.18 248H1039.88C1041.65 248 1043.09 246.542 1043.09 244.744V167.363C1043.09 167.359 1043.08 167.355 1043.08 167.355L1043.07 167.354L1043.07 167.353C1043.07 167.351 1043.07 167.349 1043.07 167.346C1043.08 167.082 1043.09 166.816 1043.09 166.548C1043.09 156.577 1035.32 148.444 1025.57 148.018C1025.57 148.017 1025.56 148.014 1025.56 148.009C1025.56 148.004 1025.56 148 1025.56 148H960.35C960.346 148 960.342 148.004 960.342 148.008C960.342 148.013 960.338 148.017 960.333 148.017C960.072 148.006 959.81 148 959.546 148C949.429 148 941.229 156.304 941.229 166.548C941.229 166.816 941.234 167.082 941.245 167.346C941.245 167.351 941.242 167.355 941.237 167.355C941.232 167.355 941.229 167.359 941.229 167.363V244.744C941.229 246.542 942.665 248 944.438 248H957.133C958.905 248 960.342 246.542 960.342 244.744V212.546C960.342 210.748 961.779 209.29 963.551 209.29H1020.76C1022.54 209.29 1023.97 210.748 1023.97 212.546V244.744ZM960.342 191.518V175.419C960.342 169.184 965.334 164.129 971.492 164.129H1012.82C1018.98 164.129 1023.97 169.184 1023.97 175.419V191.518C1023.97 193.317 1022.54 194.774 1020.76 194.774H963.551C961.779 194.774 960.342 193.317 960.342 191.518Z" fill="white"/>
<path fill-rule="evenodd" clip-rule="evenodd" d="M1291.94 248C1290.15 248 1288.7 246.542 1288.7 244.744V212.546C1288.7 210.748 1287.25 209.29 1285.46 209.29H1227.62C1225.83 209.29 1224.38 210.748 1224.38 212.546V244.744C1224.38 246.542 1222.93 248 1221.14 248H1208.32C1206.53 248 1205.08 246.542 1205.08 244.744V167.363L1205.08 167.361L1205.08 167.358C1205.08 167.356 1205.09 167.355 1205.09 167.355C1205.09 167.355 1205.1 167.351 1205.1 167.346C1205.09 167.082 1205.08 166.816 1205.08 166.548C1205.08 156.304 1213.36 148 1223.57 148C1223.84 148 1224.11 148.006 1224.37 148.017C1224.37 148.017 1224.38 148.013 1224.38 148.008C1224.38 148.004 1224.38 148 1224.39 148L1290.3 148C1290.31 148 1290.31 148.004 1290.31 148.009C1290.31 148.014 1290.31 148.017 1290.32 148.018C1300.16 148.444 1308 156.577 1308 166.548C1308 166.816 1307.99 167.082 1307.98 167.346C1307.98 167.351 1307.99 167.355 1307.99 167.355C1307.99 167.355 1308 167.356 1308 167.357C1308 167.359 1308 167.361 1308 167.363V244.744C1308 246.542 1306.55 248 1304.76 248H1291.94ZM1224.38 175.419V191.518C1224.38 193.317 1225.83 194.774 1227.62 194.774H1285.46C1287.25 194.774 1288.7 193.317 1288.7 191.518V175.419C1288.7 169.184 1283.66 164.129 1277.45 164.129H1235.64C1229.42 164.129 1224.38 169.184 1224.38 175.419Z" fill="white"/>
<path d="M1090.87 148C1091.81 148 1092.7 148.418 1093.31 149.143L1150.25 217.072C1152.18 219.375 1155.9 217.986 1155.9 214.959V151.256C1155.9 149.458 1157.33 148 1159.11 148H1171.8C1173.57 148 1175.01 149.458 1175.01 151.256V244.744C1175.01 246.542 1173.57 248 1171.8 248H1156.02C1155.95 248 1155.9 247.946 1155.9 247.878C1155.9 247.849 1155.89 247.821 1155.87 247.798L1097.98 180.344C1096.03 178.078 1092.35 179.477 1092.35 182.485V244.744C1092.35 246.542 1090.91 248 1089.14 248H1076.36C1074.59 248 1073.15 246.542 1073.15 244.744V151.256C1073.15 149.458 1074.59 148 1076.36 148H1090.87Z" fill="white"/>
<path d="M739.927 386.669H760.585L766.357 352.164H781.385L794.17 386.669H816.974L802.519 348.837C814.446 344.084 822.222 334.435 824.417 321.127C827.613 301.783 816.879 289.331 794.695 289.331H756.148L739.927 386.669ZM769.124 335.624L774.086 306.156H788.016C799.847 306.156 804.714 311.384 803.139 321.127C801.565 330.776 795.029 335.624 783.15 335.624H769.124Z" fill="white"/>
<path d="M926.581 339.331C931.924 306.916 914.75 288 888.272 288C862.797 288 840.613 305.681 835.461 336.907C830.07 369.226 847.292 388 873.913 388C899.245 388 921.286 370.557 926.581 339.331ZM906.02 336.907C902.537 358.01 890.276 369.797 874.676 369.797C860.364 369.797 852.492 359.435 855.975 339.331C859.41 318.228 871.766 306.203 887.461 306.203C901.869 306.203 909.311 316.897 906.02 336.907Z" fill="white"/>
<path d="M933.964 386.669H996.508L999.37 369.702H957.484L970.842 289.331H950.184L933.964 386.669Z" fill="white"/>
<path d="M1010.19 386.669H1072.73L1075.59 369.702H1033.71L1047.07 289.331H1026.41L1010.19 386.669Z" fill="white"/>
<path d="M1126.44 289.331H1105.3L1095.91 357.487H1113.27L1126.44 289.331ZM1100.72 387.905C1106.69 387.905 1112.46 382.819 1112.94 376.498C1113.46 370.319 1108.55 365.281 1102.44 365.281C1096.1 365.281 1090.47 370.224 1090.04 376.498C1089.66 382.819 1094.28 387.905 1100.72 387.905Z" fill="white"/>
<defs>
<linearGradient id="paint0_linear" x1="330.424" y1="-49.7223" x2="13.3401" y2="426.225" gradientUnits="userSpaceOnUse">
<stop stop-color="#00FFA3"/>
<stop offset="1" stop-color="#DC1FFF"/>
</linearGradient>
<linearGradient id="paint1_linear" x1="308.458" y1="124.821" x2="410.099" y2="300.869" gradientUnits="userSpaceOnUse">
<stop stop-color="#202020"/>
<stop offset="1" stop-color="#636363"/>
</linearGradient>
<linearGradient id="paint2_linear" x1="264.924" y1="149.955" x2="366.565" y2="326.004" gradientUnits="userSpaceOnUse">
<stop/>
<stop offset="1" stop-color="#232323"/>
</linearGradient>
<linearGradient id="paint3_linear" x1="249.666" y1="218.412" x2="148.024" y2="394.46" gradientUnits="userSpaceOnUse">
<stop stop-color="#202020"/>
<stop offset="1" stop-color="#636363"/>
</linearGradient>
<linearGradient id="paint4_linear" x1="206.616" y1="192.465" x2="104.975" y2="368.514" gradientUnits="userSpaceOnUse">
<stop/>
<stop offset="1" stop-color="#232323"/>
</linearGradient>
</defs>
</svg>
